<?xml version="1.0" standalone="no"?>
<!DOCTYPE svg PUBLIC "-//W3C//DTD SVG 20010904//EN"
 "http://www.w3.org/TR/2001/REC-SVG-20010904/DTD/svg10.dtd">
<svg version="1.0" xmlns="http://www.w3.org/2000/svg"
 width="500.000000pt" height="500.000000pt" viewBox="0 0 500.000000 500.000000"
 preserveAspectRatio="xMidYMid meet">

<g transform="translate(0.000000,500.000000) scale(0.100000,-0.100000)"
fill="#000000" stroke="none">
<path d="M0 2500 l0 -2500 2500 0 2500 0 0 2500 0 2500 -2500 0 -2500 0 0
-2500z m1420 338 c0 -29 3 -70 6 -90 l6 -37 35 14 c54 23 142 19 194 -8 35
-18 50 -35 73 -81 26 -51 30 -69 30 -150 0 -139 -41 -215 -136 -251 -65 -24
-136 -17 -183 19 l-35 27 0 -30 0 -31 -89 0 c-78 0 -89 2 -94 19 -8 30 -9 365
-1 513 l7 138 93 0 94 0 0 -52z m1204 -215 c3 -148 9 -299 12 -336 l5 -68
-128 3 c-107 3 -128 5 -126 18 1 8 5 158 8 333 l7 317 108 0 108 0 6 -267z
m-450 108 c64 -22 99 -51 134 -111 24 -40 27 -55 27 -140 0 -85 -3 -100 -27
-140 -50 -86 -119 -122 -233 -123 -178 -1 -265 85 -265 263 0 136 49 215 156
254 55 21 145 19 208 -3z m744 -119 l3 -123 27 3 27 3 0 120 0 120 115 0 115
0 3 -160 c5 -272 -16 -339 -128 -407 -54 -33 -57 -33 -175 -33 -69 0 -138 5
-162 13 l-43 13 0 89 c0 50 2 90 4 90 2 0 23 -7 46 -15 23 -8 71 -15 106 -15
56 0 65 3 83 27 12 14 20 27 18 29 -1 2 -21 -3 -42 -11 -91 -32 -177 -10 -214
55 -19 34 -21 54 -21 184 l0 147 118 -3 117 -3 3 -123z m711 118 c60 -17 112
-61 138 -115 21 -46 23 -63 23 -222 l0 -173 -90 0 c-89 0 -90 0 -90 25 0 31
-5 31 -55 0 -102 -63 -255 -1 -290 118 -19 65 -19 163 0 218 25 70 86 124 164
145 56 15 154 17 200 4z"/>
<path d="M1478 2469 c-36 -21 -16 -79 27 -79 44 0 63 60 26 80 -24 12 -31 12
-53 -1z"/>
<path d="M2042 2468 c-7 -7 -12 -25 -12 -40 0 -52 81 -50 88 2 6 39 -48 66
-76 38z"/>
<path d="M3483 2473 c-7 -2 -13 -20 -13 -39 0 -39 16 -50 55 -40 20 5 25 13
25 36 0 38 -32 58 -67 43z"/>
</g>
</svg>
